<svg width="1200" height="630" viewBox="0 0 1200 630" xmlns="http://www.w3.org/2000/svg">
  <!-- 纸张背景 -->
  <rect width="1200" height="630" fill="#f5f2e9" />
  
  <!-- 手绘边框 -->
  <path d="M30,30 C90,24 150,36 300,24 C450,15 600,45 750,30 C900,15 1050,36 1170,30 L1170,600 C1050,594 900,606 750,594 C600,585 450,615 300,600 C150,585 90,606 30,600 Z" 
        fill="none" stroke="#a8a29e" stroke-width="4" stroke-linecap="round" stroke-dasharray="6,12" />
  
  <!-- 手绘博客图标 -->
  <g transform="translate(600, 250)">
    <!-- 笔记本 -->
    <path d="M-150,-100 L150,-100 L150,100 L-150,100 Z" fill="none" stroke="#6b7280" stroke-width="3" stroke-dasharray="4,8" />
    
    <!-- 笔记本线条 -->
    <path d="M-120,-70 L120,-70" stroke="#9ca3af" stroke-width="2" />
    <path d="M-120,-40 L120,-40" stroke="#9ca3af" stroke-width="2" />
    <path d="M-120,-10 L120,-10" stroke="#9ca3af" stroke-width="2" />
    <path d="M-120,20 L120,20" stroke="#9ca3af" stroke-width="2" />
    <path d="M-120,50 L120,50" stroke="#9ca3af" stroke-width="2" />
    <path d="M-120,80 L40,80" stroke="#9ca3af" stroke-width="2" />
    
    <!-- 钢笔 -->
    <path d="M50,50 L120,0 L110,-10 L40,40 Z" fill="#6b7280" stroke="#4b5563" stroke-width="1" />
    <path d="M40,40 L30,70 L50,50" fill="#6b7280" stroke="#4b5563" stroke-width="1" />
    <path d="M120,0 L140,-20" stroke="#4b5563" stroke-width="2" />
  </g>
  
  <!-- 手绘文字 -->
  <text x="600" y="450" font-family="cursive" font-size="36" text-anchor="middle" fill="#6b7280">博客文章封面</text>
  <text x="600" y="500" font-family="cursive" font-size="24" text-anchor="middle" fill="#9ca3af">手绘风格占位图</text>
</svg> 