<svg width="800" height="600" viewBox="0 0 800 600" xmlns="http://www.w3.org/2000/svg">
  <!-- 纸张背景 -->
  <rect width="800" height="600" fill="#f5f2e9" />
  
  <!-- 手绘边框 -->
  <path d="M20,20 C60,16 100,24 200,16 C300,10 400,30 500,20 C600,10 700,24 780,20 L780,580 C700,576 600,584 500,576 C400,570 300,590 200,580 C100,570 60,584 20,580 Z" 
        fill="none" stroke="#a8a29e" stroke-width="3" stroke-linecap="round" stroke-dasharray="4,8" />
  
  <!-- 手绘图标 - 山和太阳 -->
  <g transform="translate(350, 200)">
    <!-- 太阳 -->
    <circle cx="0" cy="0" r="40" fill="#f9d38e" stroke="#e9b872" stroke-width="2" stroke-dasharray="2,4" />
    <path d="M0,-60 C-5,-50 5,-50 0,-40" fill="none" stroke="#e9b872" stroke-width="2" />
    <path d="M42,-42 C32,-42 32,-32 22,-32" fill="none" stroke="#e9b872" stroke-width="2" />
    <path d="M60,0 C50,-5 50,5 40,0" fill="none" stroke="#e9b872" stroke-width="2" />
    <path d="M42,42 C32,32 32,42 22,32" fill="none" stroke="#e9b872" stroke-width="2" />
    <path d="M0,60 C-5,50 5,50 0,40" fill="none" stroke="#e9b872" stroke-width="2" />
    <path d="M-42,42 C-32,32 -32,42 -22,32" fill="none" stroke="#e9b872" stroke-width="2" />
    <path d="M-60,0 C-50,-5 -50,5 -40,0" fill="none" stroke="#e9b872" stroke-width="2" />
    <path d="M-42,-42 C-32,-42 -32,-32 -22,-32" fill="none" stroke="#e9b872" stroke-width="2" />
    
    <!-- 山 -->
    <path d="M-150,150 C-120,80 -90,120 -60,70 C-30,100 0,50 30,90 C60,30 90,80 120,40 C150,90 180,60 210,150" 
          fill="none" stroke="#6b7280" stroke-width="3" stroke-linecap="round" />
  </g>
  
  <!-- 手绘文字 -->
  <text x="400" y="450" font-family="cursive" font-size="36" text-anchor="middle" fill="#6b7280">图片加载中...</text>
  <text x="400" y="500" font-family="cursive" font-size="24" text-anchor="middle" fill="#9ca3af">手绘风格占位图</text>
</svg> 